<svg width="264" height="174" viewBox="0 0 264 174" fill="none" xmlns="http://www.w3.org/2000/svg">
<path d="M150.235 91.0629C139.463 104.925 108.859 132.754 94.5276 145.543C91.8932 147.894 90.5759 149.069 89.0334 149.532C87.6944 149.934 86.2063 149.934 84.8673 149.532C83.3248 149.069 82.0076 147.894 79.3731 145.543C65.0419 132.754 34.4382 104.925 23.6654 91.0629C9.40302 72.7101 11.9599 46.7653 30.1215 31.2476C48.2832 15.7299 72.455 20.2884 86.9503 37.2347C101.446 20.2884 125.305 15.8931 143.779 31.2476C148.869 35.4778 152.727 40.5243 155.347 46M112.375 83.375H105.125L94.25 105.125L79.75 61.625L68.875 83.375H61.625" stroke="white" stroke-width="6" stroke-linecap="round" stroke-linejoin="round"/>
<path d="M168.784 74.888H158.308L156.508 80H152.224L161.188 54.944H165.94L174.904 80H170.584L168.784 74.888ZM167.632 71.54L163.564 59.912L159.46 71.54H167.632ZM177.434 70.064C177.434 68.024 177.842 66.236 178.658 64.7C179.498 63.14 180.65 61.94 182.114 61.1C183.578 60.26 185.258 59.84 187.154 59.84C189.554 59.84 191.534 60.416 193.094 61.568C194.678 62.696 195.746 64.316 196.298 66.428H191.87C191.51 65.444 190.934 64.676 190.142 64.124C189.35 63.572 188.354 63.296 187.154 63.296C185.474 63.296 184.13 63.896 183.122 65.096C182.138 66.272 181.646 67.928 181.646 70.064C181.646 72.2 182.138 73.868 183.122 75.068C184.13 76.268 185.474 76.868 187.154 76.868C189.53 76.868 191.102 75.824 191.87 73.736H196.298C195.722 75.752 194.642 77.36 193.058 78.56C191.474 79.736 189.506 80.324 187.154 80.324C185.258 80.324 183.578 79.904 182.114 79.064C180.65 78.2 179.498 77 178.658 75.464C177.842 73.904 177.434 72.104 177.434 70.064ZM205.176 63.512V74.492C205.176 75.236 205.344 75.776 205.68 76.112C206.04 76.424 206.64 76.58 207.48 76.58H210V80H206.76C204.912 80 203.496 79.568 202.512 78.704C201.528 77.84 201.036 76.436 201.036 74.492V63.512H198.696V60.164H201.036V55.232H205.176V60.164H210V63.512H205.176ZM215.87 57.536C215.126 57.536 214.502 57.284 213.998 56.78C213.494 56.276 213.242 55.652 213.242 54.908C213.242 54.164 213.494 53.54 213.998 53.036C214.502 52.532 215.126 52.28 215.87 52.28C216.59 52.28 217.202 52.532 217.706 53.036C218.21 53.54 218.462 54.164 218.462 54.908C218.462 55.652 218.21 56.276 217.706 56.78C217.202 57.284 216.59 57.536 215.87 57.536ZM217.886 60.164V80H213.782V60.164H217.886ZM230.942 76.328L236.558 60.164H240.914L233.354 80H228.458L220.934 60.164H225.326L230.942 76.328ZM262.196 69.596C262.196 70.34 262.148 71.012 262.052 71.612H246.896C247.016 73.196 247.604 74.468 248.66 75.428C249.716 76.388 251.012 76.868 252.548 76.868C254.756 76.868 256.316 75.944 257.228 74.096H261.656C261.056 75.92 259.964 77.42 258.38 78.596C256.82 79.748 254.876 80.324 252.548 80.324C250.652 80.324 248.948 79.904 247.436 79.064C245.948 78.2 244.772 77 243.908 75.464C243.068 73.904 242.648 72.104 242.648 70.064C242.648 68.024 243.056 66.236 243.872 64.7C244.712 63.14 245.876 61.94 247.364 61.1C248.876 60.26 250.604 59.84 252.548 59.84C254.42 59.84 256.088 60.248 257.552 61.064C259.016 61.88 260.156 63.032 260.972 64.52C261.788 65.984 262.196 67.676 262.196 69.596ZM257.912 68.3C257.888 66.788 257.348 65.576 256.292 64.664C255.236 63.752 253.928 63.296 252.368 63.296C250.952 63.296 249.74 63.752 248.732 64.664C247.724 65.552 247.124 66.764 246.932 68.3H257.912Z" fill="white"/>
</svg>
