<svg width="310" height="66" viewBox="0 0 310 66" fill="none" xmlns="http://www.w3.org/2000/svg">
<path d="M60.6998 3.6663C59.3022 4.03909 58.4729 5.46913 58.8473 6.86039C59.2218 8.25164 60.6583 9.07728 62.0558 8.70449L69.4147 6.74152L52.8516 36.7646L40.5308 26.3634C39.8717 25.807 38.9793 25.61 38.1457 25.8368C37.3121 26.0636 36.6445 26.6852 36.3614 27.498L28.6591 49.6083L17.9501 39.9378C17.4086 39.4488 16.6864 39.2073 15.9581 39.2717C15.2298 39.3362 14.5617 39.7007 14.1153 40.2771L0.545137 57.7996C-0.338257 58.9402 -0.12552 60.5779 1.02031 61.4573C2.16614 62.3367 3.81115 62.125 4.69455 60.9843L16.5319 45.6993L28.0752 56.1231C28.7267 56.7115 29.6314 56.935 30.4837 56.7182C31.336 56.5015 32.0222 55.8733 32.3104 55.0459L40.0586 32.8037L51.9093 42.808C52.5092 43.3144 53.3059 43.5257 54.0794 43.3835C54.8529 43.2413 55.5212 42.7607 55.8999 42.0744L73.9101 9.42824L75.8492 16.6324C76.2236 18.0236 77.6601 18.8492 79.0577 18.4765C80.4552 18.1037 81.2845 16.6736 80.9101 15.2824L77.3172 1.93362C76.9427 0.542359 75.5062 -0.283275 74.1087 0.0895114L60.6998 3.6663Z" fill="white"/>
<path d="M118.186 32.6616C117.739 31.2612 117.139 30.0071 116.385 28.8991C115.647 27.7758 114.762 26.8217 113.731 26.0369C112.7 25.2367 111.523 24.6289 110.199 24.2134C108.891 23.7979 107.452 23.5902 105.883 23.5902C103.221 23.5902 100.82 24.275 98.6811 25.6445C96.5421 27.0141 94.8494 29.0223 93.603 31.669C92.3719 34.3004 91.7564 37.5243 91.7564 41.3406C91.7564 45.1722 92.3796 48.4115 93.6261 51.0582C94.8725 53.705 96.5806 55.7132 98.7504 57.0827C100.92 58.4523 103.39 59.1371 106.16 59.1371C108.73 59.1371 110.969 58.6139 112.877 57.5675C114.8 56.5211 116.285 55.0438 117.332 53.1357C118.393 51.2121 118.924 48.95 118.924 46.3494L120.771 46.6957H107.245V40.8097H125.826V46.1879C125.826 50.158 124.98 53.605 123.287 56.5288C121.61 59.4371 119.286 61.6838 116.316 63.2688C113.362 64.8538 109.976 65.6463 106.16 65.6463C101.882 65.6463 98.1271 64.6615 94.8956 62.6918C91.6795 60.7221 89.1712 57.9291 87.3707 54.3129C85.5703 50.6812 84.6701 46.3725 84.6701 41.3867C84.6701 37.6166 85.1933 34.2312 86.2397 31.2305C87.2861 28.2298 88.7557 25.683 90.6484 23.5902C92.5566 21.482 94.7956 19.8739 97.3654 18.766C99.9506 17.6426 102.774 17.081 105.837 17.081C108.391 17.081 110.769 17.458 112.969 18.212C115.185 18.966 117.155 20.0355 118.878 21.4205C120.617 22.8054 122.056 24.4519 123.195 26.3601C124.333 28.2528 125.103 30.3533 125.503 32.6616H118.186ZM134.326 65V29.5455H140.997V35.1776H141.366C142.013 33.2694 143.151 31.7691 144.782 30.6765C146.429 29.5685 148.291 29.0146 150.368 29.0146C150.799 29.0146 151.307 29.0299 151.892 29.0607C152.492 29.0915 152.961 29.13 153.3 29.1761V35.7777C153.023 35.7008 152.53 35.6161 151.823 35.5238C151.115 35.4161 150.407 35.3622 149.699 35.3622C148.068 35.3622 146.614 35.7085 145.336 36.4009C144.075 37.078 143.074 38.0244 142.336 39.2401C141.597 40.4403 141.228 41.8099 141.228 43.3487V65H134.326ZM172.937 65.7156C169.613 65.7156 166.713 64.9538 164.235 63.4304C161.758 61.907 159.834 59.7757 158.464 57.0366C157.095 54.2975 156.41 51.0967 156.41 47.4343C156.41 43.7565 157.095 40.5404 158.464 37.7859C159.834 35.0314 161.758 32.8924 164.235 31.369C166.713 29.8455 169.613 29.0838 172.937 29.0838C176.261 29.0838 179.162 29.8455 181.639 31.369C184.117 32.8924 186.04 35.0314 187.41 37.7859C188.779 40.5404 189.464 43.7565 189.464 47.4343C189.464 51.0967 188.779 54.2975 187.41 57.0366C186.04 59.7757 184.117 61.907 181.639 63.4304C179.162 64.9538 176.261 65.7156 172.937 65.7156ZM172.96 59.9219C175.115 59.9219 176.9 59.3525 178.315 58.2138C179.731 57.075 180.777 55.5593 181.455 53.6665C182.147 51.7738 182.493 49.6887 182.493 47.4112C182.493 45.1491 182.147 43.0717 181.455 41.179C180.777 39.2708 179.731 37.7397 178.315 36.5856C176.9 35.4315 175.115 34.8544 172.96 34.8544C170.79 34.8544 168.99 35.4315 167.559 36.5856C166.143 37.7397 165.089 39.2708 164.397 41.179C163.72 43.0717 163.381 45.1491 163.381 47.4112C163.381 49.6887 163.72 51.7738 164.397 53.6665C165.089 55.5593 166.143 57.075 167.559 58.2138C168.99 59.3525 170.79 59.9219 172.96 59.9219ZM203.775 65L193.342 29.5455H200.474L207.422 55.5824H207.768L214.739 29.5455H221.872L228.797 55.467H229.143L236.044 29.5455H243.177L232.767 65H225.727L218.525 39.4016H217.994L210.792 65H203.775ZM266.277 29.5455V35.0852H246.91V29.5455H266.277ZM252.104 21.0511H259.006V54.5898C259.006 55.9286 259.206 56.9366 259.606 57.6136C260.006 58.2753 260.521 58.7293 261.152 58.9755C261.799 59.2063 262.499 59.3217 263.253 59.3217C263.807 59.3217 264.291 59.2833 264.707 59.2063C265.122 59.1294 265.446 59.0678 265.676 59.0217L266.923 64.723C266.523 64.8769 265.953 65.0308 265.215 65.1847C264.476 65.3539 263.553 65.4463 262.445 65.4616C260.629 65.4924 258.936 65.1693 257.367 64.4922C255.797 63.8151 254.528 62.7687 253.558 61.353C252.589 59.9373 252.104 58.1599 252.104 56.021V21.0511ZM281.574 43.9489V65H274.673V17.7273H281.482V35.316H281.921C282.752 33.4079 284.021 31.8922 285.729 30.7688C287.437 29.6455 289.669 29.0838 292.423 29.0838C294.854 29.0838 296.978 29.5839 298.794 30.5842C300.625 31.5844 302.041 33.0771 303.041 35.0621C304.057 37.0318 304.564 39.494 304.564 42.4485V65H297.663V43.2795C297.663 40.6789 296.993 38.663 295.655 37.2319C294.316 35.7854 292.454 35.0621 290.069 35.0621C288.438 35.0621 286.976 35.4084 285.683 36.1009C284.406 36.7933 283.398 37.8089 282.659 39.1477C281.936 40.4711 281.574 42.0715 281.574 43.9489Z" fill="white"/>
</svg>
