<svg width="218" height="57" viewBox="0 0 218 57" fill="none" xmlns="http://www.w3.org/2000/svg">
<path fill-rule="evenodd" clip-rule="evenodd" d="M0 7C0 3.13401 3.13401 0 7 0H47C50.866 0 54 3.13401 54 7V13.8039C53.0765 14.1036 52.2105 14.625 51.4869 15.3674L44.7458 22.2832C44.1954 22.8479 43.9202 23.1302 43.5935 23.3091C43.278 23.4818 42.9285 23.5844 42.5691 23.6098C42.1969 23.6361 41.8115 23.5477 41.0405 23.371L22.4867 19.1182L22.4867 19.1182L22.4866 19.1182C21.7021 18.9384 21.3098 18.8485 20.9304 18.8775C20.5945 18.9032 20.2674 18.9964 19.9689 19.1514C19.6316 19.3265 19.347 19.6093 18.7776 20.1748L18.7776 20.1748L18.7776 20.1748L17.8554 21.0908C16.3476 22.5884 15.5938 23.3372 15.4573 24.1035C15.3381 24.7727 15.5017 25.4611 15.9096 26.0067C16.3768 26.6316 17.3882 26.9664 19.411 27.6362L34.4082 32.6015L26.087 40.8665C25.5903 41.3599 25.342 41.6065 25.0495 41.7716C24.7904 41.9177 24.507 42.0165 24.2127 42.0631C23.8806 42.1157 23.5315 42.0772 22.8334 42.0002L18.7208 41.5463C18.0226 41.4692 17.6735 41.4307 17.3414 41.4833C17.0471 41.5299 16.7637 41.6287 16.5046 41.7749C16.2121 41.9399 15.9638 42.1866 15.4671 42.6799L14.9758 43.1679L14.9758 43.1679C13.7991 44.3366 13.2108 44.921 13.0404 45.5704C12.8909 46.14 12.9512 46.7439 13.2102 47.2733C13.5055 47.8769 14.1978 48.3353 15.5824 49.2521L21.4339 53.1269L21.434 53.1269L21.4342 53.1271C21.6814 53.2907 21.805 53.3726 21.9172 53.4676C22.0168 53.5521 22.1096 53.6443 22.1946 53.7432C22.2558 53.8145 22.3116 53.8903 22.3869 54H7C3.13401 54 0 50.866 0 47V7ZM53.479 31.0598L54 30.5178V41.2239L52.4793 34.6787C52.3029 33.9195 52.2147 33.5399 52.2407 33.1715C52.2637 32.8454 52.3516 32.5271 52.4994 32.235C52.6663 31.905 52.9372 31.6233 53.479 31.0598ZM43.2024 41.3365L47.4475 53.9859C47.2996 53.9953 47.1503 54 47 54H33.8705L33.74 52.8332C33.6624 52.1398 33.6236 51.7931 33.6766 51.4631C33.7235 51.1709 33.823 50.8893 33.9701 50.632C34.1362 50.3415 34.3846 50.0949 34.8812 49.6016L34.8813 49.6015L43.2024 41.3365ZM11.84 4.32C11.84 4.04386 11.6161 3.82 11.34 3.82C11.0639 3.82 10.84 4.04386 10.84 4.32V5.4C10.84 5.67614 11.0639 5.9 11.34 5.9C11.6161 5.9 11.84 5.67614 11.84 5.4V4.32ZM7.8595 5.53239C7.66424 5.33713 7.34766 5.33713 7.15239 5.53239C6.95713 5.72766 6.95713 6.04424 7.15239 6.2395L7.91607 7.00318C8.11133 7.19844 8.42791 7.19844 8.62318 7.00318C8.81844 6.80791 8.81844 6.49133 8.62318 6.29607L7.8595 5.53239ZM15.5274 6.2395C15.7227 6.04424 15.7227 5.72766 15.5274 5.53239C15.3322 5.33713 15.0156 5.33713 14.8203 5.53239L14.0566 6.29607C13.8614 6.49133 13.8614 6.80791 14.0566 7.00318C14.2519 7.19844 14.5685 7.19844 14.7638 7.00318L15.5274 6.2395ZM9.14 9.72C9.14 8.50497 10.125 7.52 11.34 7.52C12.555 7.52 13.54 8.50497 13.54 9.72C13.54 9.99614 13.7639 10.22 14.04 10.22C14.3161 10.22 14.54 9.99614 14.54 9.72C14.54 7.95269 13.1073 6.52 11.34 6.52C9.57269 6.52 8.14 7.95269 8.14 9.72C8.14 9.99614 8.36386 10.22 8.64 10.22C8.91614 10.22 9.14 9.99614 9.14 9.72ZM5.94 9.22C5.66386 9.22 5.44 9.44386 5.44 9.72C5.44 9.99614 5.66386 10.22 5.94 10.22H7.02C7.29614 10.22 7.52 9.99614 7.52 9.72C7.52 9.44386 7.29614 9.22 7.02 9.22H5.94ZM15.66 9.22C15.3839 9.22 15.16 9.44386 15.16 9.72C15.16 9.99614 15.3839 10.22 15.66 10.22H16.74C17.0161 10.22 17.24 9.99614 17.24 9.72C17.24 9.44386 17.0161 9.22 16.74 9.22H15.66ZM6.20095 12.5579C6.72289 12.3207 7.40361 12.3207 7.92555 12.5579C8.71041 12.9147 9.69289 12.9147 10.4778 12.5579C10.9997 12.3207 11.6804 12.3207 12.2024 12.5579C12.9872 12.9147 13.9697 12.9147 14.7546 12.5579C15.2765 12.3207 15.9572 12.3207 16.4792 12.5579C16.7305 12.6722 17.027 12.561 17.1412 12.3097C17.2555 12.0583 17.1443 11.7618 16.893 11.6476C16.1081 11.2908 15.1256 11.2908 14.3408 11.6476C13.8188 11.8848 13.1381 11.8848 12.6162 11.6476C11.8313 11.2908 10.8488 11.2908 10.064 11.6476C9.54201 11.8848 8.86129 11.8848 8.33935 11.6476C7.55449 11.2908 6.57201 11.2908 5.78715 11.6476C5.53576 11.7618 5.4246 12.0583 5.53887 12.3097C5.65314 12.561 5.94956 12.6722 6.20095 12.5579ZM10.4777 14.4479C10.9997 14.2107 11.6804 14.2107 12.2023 14.4479C12.9872 14.8047 13.9697 14.8047 14.7545 14.4479C15.0059 14.3337 15.1171 14.0372 15.0028 13.7858C14.8885 13.5345 14.5921 13.4233 14.3407 13.5376C13.8188 13.7748 13.1381 13.7748 12.6161 13.5376C11.8313 13.1808 10.8488 13.1808 10.0639 13.5376C9.54199 13.7748 8.86127 13.7748 8.33933 13.5376C8.08794 13.4233 7.79152 13.5345 7.67725 13.7858C7.56298 14.0372 7.67414 14.3337 7.92553 14.4479C8.71039 14.8047 9.69287 14.8047 10.4777 14.4479Z" fill="white"/>
<path d="M82.96 18.2V21.92H75.56V46H71V21.92H63.56V18.2H82.96ZM92.1381 27.16C92.8048 26.04 93.6848 25.1733 94.7781 24.56C95.8981 23.92 97.2181 23.6 98.7381 23.6V28.32H97.5781C95.7915 28.32 94.4315 28.7733 93.4981 29.68C92.5915 30.5867 92.1381 32.16 92.1381 34.4V46H87.5781V23.96H92.1381V27.16ZM105.25 21.04C104.423 21.04 103.73 20.76 103.17 20.2C102.61 19.64 102.33 18.9467 102.33 18.12C102.33 17.2933 102.61 16.6 103.17 16.04C103.73 15.48 104.423 15.2 105.25 15.2C106.05 15.2 106.73 15.48 107.29 16.04C107.85 16.6 108.13 17.2933 108.13 18.12C108.13 18.9467 107.85 19.64 107.29 20.2C106.73 20.76 106.05 21.04 105.25 21.04ZM107.49 23.96V46H102.93V23.96H107.49ZM118.037 27.2C118.81 26.1867 119.863 25.3333 121.197 24.64C122.53 23.9467 124.037 23.6 125.717 23.6C127.637 23.6 129.383 24.08 130.957 25.04C132.557 25.9733 133.81 27.2933 134.717 29C135.623 30.7067 136.077 32.6667 136.077 34.88C136.077 37.0933 135.623 39.08 134.717 40.84C133.81 42.5733 132.557 43.9333 130.957 44.92C129.383 45.88 127.637 46.36 125.717 46.36C124.037 46.36 122.543 46.0267 121.237 45.36C119.93 44.6667 118.863 43.8133 118.037 42.8V56.48H113.477V23.96H118.037V27.2ZM131.437 34.88C131.437 33.36 131.117 32.0533 130.477 30.96C129.863 29.84 129.037 29 127.997 28.44C126.983 27.8533 125.89 27.56 124.717 27.56C123.57 27.56 122.477 27.8533 121.437 28.44C120.423 29.0267 119.597 29.88 118.957 31C118.343 32.12 118.037 33.44 118.037 34.96C118.037 36.48 118.343 37.8133 118.957 38.96C119.597 40.08 120.423 40.9333 121.437 41.52C122.477 42.1067 123.57 42.4 124.717 42.4C125.89 42.4 126.983 42.1067 127.997 41.52C129.037 40.9067 129.863 40.0267 130.477 38.88C131.117 37.7333 131.437 36.4 131.437 34.88ZM149.106 41.92L155.346 23.96H160.186L151.786 46H146.346L137.986 23.96H142.866L149.106 41.92ZM165.953 21.04C165.126 21.04 164.433 20.76 163.873 20.2C163.313 19.64 163.033 18.9467 163.033 18.12C163.033 17.2933 163.313 16.6 163.873 16.04C164.433 15.48 165.126 15.2 165.953 15.2C166.753 15.2 167.433 15.48 167.993 16.04C168.553 16.6 168.833 17.2933 168.833 18.12C168.833 18.9467 168.553 19.64 167.993 20.2C167.433 20.76 166.753 21.04 165.953 21.04ZM168.193 23.96V46H163.633V23.96H168.193ZM182.18 46.36C180.446 46.36 178.886 46.0533 177.5 45.44C176.14 44.8 175.06 43.9467 174.26 42.88C173.46 41.7867 173.033 40.5733 172.98 39.24H177.7C177.78 40.1733 178.22 40.96 179.02 41.6C179.846 42.2133 180.873 42.52 182.1 42.52C183.38 42.52 184.366 42.28 185.06 41.8C185.78 41.2933 186.14 40.6533 186.14 39.88C186.14 39.0533 185.74 38.44 184.94 38.04C184.166 37.64 182.926 37.2 181.22 36.72C179.566 36.2667 178.22 35.8267 177.18 35.4C176.14 34.9733 175.233 34.32 174.46 33.44C173.713 32.56 173.34 31.4 173.34 29.96C173.34 28.7867 173.686 27.72 174.38 26.76C175.073 25.7733 176.06 25 177.34 24.44C178.646 23.88 180.14 23.6 181.82 23.6C184.326 23.6 186.34 24.24 187.86 25.52C189.406 26.7733 190.233 28.4933 190.34 30.68H185.78C185.7 29.6933 185.3 28.9067 184.58 28.32C183.86 27.7333 182.886 27.44 181.66 27.44C180.46 27.44 179.54 27.6667 178.9 28.12C178.26 28.5733 177.94 29.1733 177.94 29.92C177.94 30.5067 178.153 31 178.58 31.4C179.006 31.8 179.526 32.12 180.14 32.36C180.753 32.5733 181.66 32.8533 182.86 33.2C184.46 33.6267 185.766 34.0667 186.78 34.52C187.82 34.9467 188.713 35.5867 189.46 36.44C190.206 37.2933 190.593 38.4267 190.62 39.84C190.62 41.0933 190.273 42.2133 189.58 43.2C188.886 44.1867 187.9 44.96 186.62 45.52C185.366 46.08 183.886 46.36 182.18 46.36ZM215.747 34.44C215.747 35.2667 215.694 36.0133 215.587 36.68H198.747C198.88 38.44 199.534 39.8533 200.707 40.92C201.88 41.9867 203.32 42.52 205.027 42.52C207.48 42.52 209.214 41.4933 210.227 39.44H215.147C214.48 41.4667 213.267 43.1333 211.507 44.44C209.774 45.72 207.614 46.36 205.027 46.36C202.92 46.36 201.027 45.8933 199.347 44.96C197.694 44 196.387 42.6667 195.427 40.96C194.494 39.2267 194.027 37.2267 194.027 34.96C194.027 32.6933 194.48 30.7067 195.387 29C196.32 27.2667 197.614 25.9333 199.267 25C200.947 24.0667 202.867 23.6 205.027 23.6C207.107 23.6 208.96 24.0533 210.587 24.96C212.214 25.8667 213.48 27.1467 214.387 28.8C215.294 30.4267 215.747 32.3067 215.747 34.44ZM210.987 33C210.96 31.32 210.36 29.9733 209.187 28.96C208.014 27.9467 206.56 27.44 204.827 27.44C203.254 27.44 201.907 27.9467 200.787 28.96C199.667 29.9467 199 31.2933 198.787 33H210.987Z" fill="white"/>
</svg>
